<svg width="24" height="24" viewBox="0 0 24 24" fill="none" xmlns="http://www.w3.org/2000/svg">
<path d="M13.9697 15.0303C14.2626 15.3232 14.7374 15.3232 15.0303 15.0303C15.3232 14.7374 15.3232 14.2626 15.0303 13.9697L13.9697 15.0303ZM10.0303 8.96967C9.73744 8.67678 9.26256 8.67678 8.96967 8.96967C8.67678 9.26256 8.67678 9.73744 8.96967 10.0303L10.0303 8.96967ZM15.0303 13.9697L10.0303 8.96967L8.96967 10.0303L13.9697 15.0303L15.0303 13.9697Z" fill="#160042"/>
<path d="M8.96967 13.9697C8.67678 14.2626 8.67678 14.7374 8.96967 15.0303C9.26256 15.3232 9.73744 15.3232 10.0303 15.0303L8.96967 13.9697ZM15.0303 10.0303C15.3232 9.73744 15.3232 9.26256 15.0303 8.96967C14.7374 8.67678 14.2626 8.67678 13.9697 8.96967L15.0303 10.0303ZM10.0303 15.0303L15.0303 10.0303L13.9697 8.96967L8.96967 13.9697L10.0303 15.0303Z" fill="#160042"/>
</svg>
